<svg width="797" height="484" viewBox="0 0 797 484" fill="none" xmlns="http://www.w3.org/2000/svg">
<mask id="mask0_47_20" style="mask-type:luminance" maskUnits="userSpaceOnUse" x="0" y="0" width="351" height="89">
<path d="M0 0.369141H350.453V88.3691H0V0.369141Z" fill="white"/>
</mask>
<g mask="url(#mask0_47_20)">
<path d="M349.452 1.54688C352.775 29.1875 347.286 53.2969 325.494 71.7344C313.723 81.6927 300.421 88.0469 284.723 88.0573C222.385 88.0781 160.046 88.3021 97.7129 87.7917C74.6816 87.6042 55.3066 77.3854 38.89 61.5833C21.6764 45 16.5983 21.151 0.119141 1.54688H349.452Z" fill="#00B6FF"/>
</g>
<path d="M94.5215 199.604C137.735 199.604 178.62 197.406 219.152 200.271C254.641 202.776 289.673 196.677 324.995 199.266C341.85 200.484 341.928 199.479 341.084 216.187C339.308 251.62 313.641 280.687 277.584 283.453C244.954 285.953 211.902 286.49 179.282 282.786C145.516 278.953 121.792 259.755 107.417 229.094C103.298 220.312 99.6309 211.323 94.5215 199.604Z" fill="#00B6FF"/>
<mask id="mask1_47_20" style="mask-type:luminance" maskUnits="userSpaceOnUse" x="393" y="0" width="404" height="484">
<path d="M393.119 0H796.702V483.036H393.119V0Z" fill="white"/>
</mask>
<g mask="url(#mask1_47_20)">
<path d="M393.667 482.177C421.068 453.666 446.073 427.822 470.849 401.744C475.141 397.229 480.177 398.156 485.188 398.135C541.974 397.968 598.755 397.406 655.531 397.953C683.5 398.223 704.807 378.14 710.641 355.062C716.578 331.52 706.615 305.505 685.286 291.828C675.021 285.239 663.594 283.317 651.74 283.208C632.5 283.026 613.26 283.057 594.021 282.989C589.365 282.989 584.911 283.348 581.641 278.458C564.609 252.973 547.318 227.671 528.87 200.447C558.354 200.447 585.724 200.499 613.099 200.427C629.021 200.385 645.052 201.244 660.849 199.77C691.099 196.937 714.448 168.645 712.865 138.442C711.271 108.041 686.932 84.8224 655.49 84.6453C591.203 84.2911 526.917 84.239 462.625 84.489C453.583 84.5307 448.13 81.9422 443.203 74.3067C427.536 50.0567 411.099 26.3172 393.641 0.426541C419.896 0.426541 443.677 0.452583 467.448 0.426541C530.328 0.332791 593.214 -0.406792 656.089 0.327583C697.224 0.811958 731.583 17.1922 760.448 47.1661C785.974 73.6401 795.589 105.682 796.531 140.557C797.516 177.005 785.208 209.552 760.078 236.677C758.813 238.046 757.786 239.635 756.339 241.515C780.161 265.848 794.036 295.005 796.052 329.078C798.536 371.14 786.464 407.276 756.203 438.567C725.151 470.682 688.521 482.703 645.281 482.369C562.703 481.729 480.115 482.177 393.667 482.177Z" fill="#05152F"/>
</g>
<path d="M181.318 392.662H348.917C358.287 443.949 324.141 478.277 289.792 481.605C253.751 485.094 224.808 471.344 204.36 441.245C194.605 426.886 189.459 410.214 181.318 392.662Z" fill="#05152F"/>
</svg>
