<svg width="798" height="614" viewBox="0 0 798 614" fill="none" xmlns="http://www.w3.org/2000/svg">
<mask id="mask0_46_3" style="mask-type:luminance" maskUnits="userSpaceOnUse" x="0" y="1" width="352" height="88">
<path d="M0.880859 1H351.334V89H0.880859V1Z" fill="white"/>
</mask>
<g mask="url(#mask0_46_3)">
<path d="M350.333 2.17773C353.656 29.8184 348.167 53.9277 326.375 72.3652C314.604 82.3236 301.302 88.6777 285.604 88.6882C223.266 88.709 160.927 88.9329 98.5938 88.4225C75.5625 88.235 56.1875 78.0163 39.7708 62.2142C22.5573 45.6309 17.4792 21.7819 1 2.17773H350.333Z" fill="#00B6FF"/>
</g>
<path d="M95.4023 200.235C138.616 200.235 179.501 198.037 220.033 200.902C255.522 203.407 290.553 197.308 325.876 199.896C342.73 201.115 342.809 200.11 341.965 216.818C340.189 252.251 314.522 281.318 278.465 284.084C245.835 286.584 212.783 287.12 180.163 283.417C146.397 279.584 122.673 260.386 108.298 229.725C104.178 220.943 100.512 211.954 95.4023 200.235Z" fill="#00B6FF"/>
<mask id="mask1_46_3" style="mask-type:luminance" maskUnits="userSpaceOnUse" x="394" y="0" width="404" height="484">
<path d="M394 0.630859H797.583V483.667H394V0.630859Z" fill="white"/>
</mask>
<g mask="url(#mask1_46_3)">
<path d="M394.548 482.807C421.949 454.297 446.954 428.453 471.73 402.375C476.021 397.86 481.058 398.787 486.068 398.766C542.855 398.599 599.636 398.037 656.412 398.583C684.381 398.854 705.688 378.771 711.521 355.693C717.459 332.151 707.495 306.136 686.167 292.458C675.902 285.87 664.475 283.948 652.62 283.839C633.381 283.656 614.141 283.688 594.902 283.62C590.245 283.62 585.792 283.979 582.521 279.089C565.49 253.604 548.199 228.302 529.751 201.078C559.235 201.078 586.605 201.13 613.98 201.057C629.902 201.016 645.933 201.875 661.73 200.401C691.98 197.568 715.329 169.276 713.745 139.073C712.152 108.672 687.813 85.4532 656.37 85.2762C592.084 84.922 527.798 84.8699 463.506 85.1199C454.464 85.1616 449.011 82.573 444.084 74.9376C428.417 50.6876 411.98 26.948 394.521 1.0574C420.777 1.0574 444.558 1.08344 468.329 1.0574C531.209 0.96365 594.094 0.224068 656.969 0.958442C698.105 1.44282 732.464 17.823 761.329 47.797C786.855 74.2709 796.469 106.313 797.412 141.188C798.396 177.636 786.089 210.182 760.959 237.307C759.693 238.677 758.667 240.266 757.219 242.146C781.042 266.479 794.917 295.636 796.933 329.708C799.417 371.771 787.344 407.906 757.084 439.198C726.032 471.313 689.402 483.333 646.162 483C563.584 482.36 480.995 482.807 394.548 482.807Z" fill="#05152F"/>
</g>
<path d="M182.199 393.293H349.798C359.168 444.579 325.022 478.908 290.673 482.236C254.632 485.725 225.689 471.975 205.241 441.876C195.486 427.517 190.34 410.845 182.199 393.293Z" fill="#05152F"/>
<mask id="mask2_46_3" style="mask-type:luminance" maskUnits="userSpaceOnUse" x="0" y="549" width="50" height="65">
<path d="M0.880859 549H50.0007V613.995H0.880859V549Z" fill="white"/>
</mask>
<g mask="url(#mask2_46_3)">
<path d="M6.55859 550.209H49.7669V561.271H6.55859V561.225H1.12109L6.55859 550.209ZM17.6159 569.673V602.626H49.7669V613.62H6.55859V569.673H17.6159ZM23.0534 588.563H17.6159L23.0534 577.563H43.7982V588.563H23.0534Z" fill="#05152F"/>
</g>
<mask id="mask3_46_3" style="mask-type:luminance" maskUnits="userSpaceOnUse" x="55" y="549" width="54" height="65">
<path d="M55.334 549H108.667V613.995H55.334V549Z" fill="white"/>
</mask>
<g mask="url(#mask3_46_3)">
<path d="M96.3607 550.256H107.355V613.636L96.3607 596.298L74.069 561.225H55.7148L61.1576 550.256V550.209H67.0794L78.0482 550.256L96.3763 577.766L96.3607 550.256ZM72.2148 613.636H61.1576V569.673H72.2148V613.636Z" fill="#05152F"/>
</g>
<mask id="mask4_46_3" style="mask-type:luminance" maskUnits="userSpaceOnUse" x="112" y="549" width="51" height="65">
<path d="M112.668 549H162.001V613.995H112.668V549Z" fill="white"/>
</mask>
<g mask="url(#mask4_46_3)">
<path d="M118.761 550.209H161.975V561.271H118.761V561.225H113.318L118.761 550.209ZM129.818 569.673V602.626H161.975V613.62H118.761V569.673H129.818ZM135.256 588.563H129.818L135.256 577.563H156.001V588.563H135.256Z" fill="#05152F"/>
</g>
<mask id="mask5_46_3" style="mask-type:luminance" maskUnits="userSpaceOnUse" x="167" y="547" width="65" height="67">
<path d="M167.334 547.668H231.334V613.996H167.334V547.668Z" fill="white"/>
</mask>
<g mask="url(#mask5_46_3)">
<path d="M199.542 548.799C203.813 548.789 207.907 549.643 211.818 551.367C215.631 553.002 218.99 555.304 221.896 558.263C222.626 559.028 223.318 559.825 223.975 560.653C224.626 561.487 225.24 562.346 225.813 563.231C226.386 564.122 226.912 565.033 227.402 565.971C227.886 566.914 228.324 567.872 228.719 568.851C229.11 569.835 229.459 570.83 229.756 571.846C230.053 572.856 230.303 573.882 230.506 574.924C230.704 575.96 230.855 577.002 230.954 578.054C231.058 579.106 231.105 580.164 231.105 581.221C231.105 582.278 231.058 583.33 230.954 584.382C230.855 585.434 230.704 586.481 230.506 587.518C230.303 588.554 230.053 589.58 229.756 590.596C229.459 591.606 229.11 592.606 228.719 593.585C228.324 594.565 227.886 595.528 227.402 596.466C226.912 597.403 226.386 598.32 225.813 599.205C225.24 600.096 224.626 600.955 223.975 601.783C223.318 602.612 222.626 603.408 221.896 604.174C218.995 607.132 215.641 609.434 211.834 611.075C209.896 611.919 207.891 612.559 205.818 612.992C203.751 613.424 201.657 613.638 199.542 613.638C197.423 613.638 195.329 613.424 193.261 612.992C191.188 612.559 189.183 611.919 187.245 611.075C183.433 609.429 180.074 607.127 177.162 604.174C176.428 603.408 175.735 602.617 175.079 601.783C174.423 600.955 173.808 600.096 173.235 599.21C172.657 598.32 172.131 597.408 171.641 596.471C171.157 595.533 170.714 594.57 170.318 593.591C169.928 592.612 169.579 591.612 169.282 590.596C168.98 589.585 168.73 588.559 168.532 587.518C168.329 586.481 168.178 585.434 168.079 584.382C167.975 583.33 167.928 582.278 167.928 581.221C167.928 580.164 167.975 579.106 168.079 578.054C168.178 577.002 168.329 575.955 168.532 574.919C168.73 573.882 168.98 572.856 169.282 571.841C169.579 570.825 169.928 569.83 170.318 568.846C170.714 567.867 171.157 566.908 171.641 565.971C172.131 565.028 172.657 564.117 173.235 563.226C173.808 562.341 174.423 561.481 175.079 560.653C175.735 559.825 176.428 559.028 177.162 558.263C180.074 555.309 183.433 553.007 187.245 551.367C191.162 549.638 195.261 548.783 199.542 548.799ZM184.787 596.346C188.86 600.533 193.777 602.627 199.542 602.627C205.303 602.627 210.209 600.533 214.266 596.346C215.24 595.341 216.105 594.252 216.865 593.08C217.626 591.903 218.266 590.669 218.787 589.377C219.313 588.08 219.709 586.747 219.975 585.372C220.24 584.002 220.376 582.617 220.376 581.221C220.376 579.82 220.24 578.434 219.975 577.065C219.709 575.695 219.313 574.362 218.787 573.065C218.266 571.768 217.626 570.533 216.865 569.362C216.105 568.19 215.24 567.101 214.266 566.091C210.193 561.908 205.287 559.815 199.542 559.815C193.798 559.815 188.876 561.908 184.787 566.091C183.818 567.096 182.949 568.184 182.183 569.356C181.423 570.528 180.777 571.763 180.251 573.059C179.73 574.356 179.334 575.69 179.063 577.065C178.798 578.434 178.662 579.82 178.662 581.221C178.662 582.617 178.798 584.002 179.063 585.377C179.334 586.747 179.73 588.08 180.251 589.377C180.777 590.674 181.423 591.908 182.183 593.08C182.949 594.252 183.818 595.341 184.787 596.346Z" fill="#05152F"/>
</g>
<mask id="mask6_46_3" style="mask-type:luminance" maskUnits="userSpaceOnUse" x="236" y="549" width="53" height="65">
<path d="M236.668 549H288.668V613.995H236.668V549Z" fill="white"/>
</mask>
<g mask="url(#mask6_46_3)">
<path d="M277.669 550.256H288.669V587.761C288.705 592.407 287.544 596.735 285.195 600.74C282.893 604.725 279.752 607.865 275.773 610.162C273.799 611.303 271.71 612.162 269.513 612.756C267.309 613.344 265.07 613.636 262.794 613.636C260.513 613.636 258.273 613.344 256.075 612.756C253.872 612.162 251.789 611.303 249.815 610.162C245.83 607.865 242.69 604.725 240.393 600.74C238.039 596.735 236.882 592.407 236.919 587.761V550.256H247.914V587.761C247.914 588.74 248.007 589.704 248.2 590.662C248.393 591.62 248.674 592.548 249.044 593.454C249.419 594.355 249.877 595.209 250.419 596.021C250.96 596.834 251.58 597.584 252.268 598.277C252.96 598.964 253.71 599.579 254.523 600.12C255.33 600.667 256.19 601.12 257.091 601.495C257.992 601.87 258.924 602.152 259.882 602.344C260.835 602.532 261.804 602.631 262.778 602.631C263.757 602.631 264.721 602.532 265.679 602.344C266.638 602.152 267.565 601.87 268.471 601.495C269.372 601.126 270.226 600.667 271.039 600.12C271.851 599.579 272.601 598.964 273.294 598.277C273.981 597.584 274.596 596.834 275.143 596.021C275.684 595.209 276.143 594.355 276.513 593.454C276.888 592.548 277.169 591.62 277.362 590.662C277.549 589.704 277.648 588.74 277.648 587.761V561.225H272.247L277.669 550.256Z" fill="#05152F"/>
</g>
<mask id="mask7_46_3" style="mask-type:luminance" maskUnits="userSpaceOnUse" x="294" y="549" width="18" height="65">
<path d="M294 549H311.333V613.995H294V549Z" fill="white"/>
</mask>
<g mask="url(#mask7_46_3)">
<path d="M299.98 550.256H311.032V613.636H299.98V561.225H294.537L299.98 550.256Z" fill="#05152F"/>
</g>
<mask id="mask8_46_3" style="mask-type:luminance" maskUnits="userSpaceOnUse" x="316" y="550" width="95" height="64">
<path d="M316.668 550.334H410.001V613.995H316.668V550.334Z" fill="white"/>
</mask>
<g mask="url(#mask8_46_3)">
<path d="M391.371 577.548C392.548 577.563 393.71 577.699 394.855 577.938C396.001 578.183 397.116 578.537 398.194 579.001C399.277 579.459 400.298 580.021 401.267 580.683C402.241 581.344 403.137 582.089 403.96 582.928C404.783 583.766 405.517 584.673 406.163 585.652C406.809 586.631 407.355 587.662 407.803 588.751C408.246 589.834 408.585 590.954 408.809 592.105C409.038 593.256 409.147 594.417 409.147 595.594C409.147 596.766 409.038 597.928 408.809 599.079C408.585 600.23 408.246 601.35 407.803 602.438C407.355 603.521 406.809 604.553 406.163 605.532C405.517 606.511 404.783 607.423 403.96 608.256C403.137 609.094 402.241 609.844 401.267 610.501C400.298 611.162 399.277 611.725 398.194 612.188C397.116 612.646 396.001 613.001 394.855 613.245C393.71 613.49 392.548 613.62 391.371 613.636H316.98L322.423 602.641H347.413C348.345 602.662 349.241 602.495 350.1 602.141C350.96 601.787 351.715 601.271 352.366 600.605C352.689 600.277 352.975 599.917 353.225 599.532C353.48 599.146 353.694 598.74 353.871 598.318C354.043 597.891 354.173 597.449 354.262 597.001C354.35 596.548 354.397 596.089 354.397 595.631C354.397 595.167 354.35 594.714 354.262 594.261C354.173 593.808 354.043 593.37 353.871 592.943C353.694 592.516 353.48 592.11 353.225 591.725C352.975 591.339 352.689 590.985 352.366 590.652C351.715 589.985 350.96 589.475 350.1 589.12C349.241 588.766 348.345 588.6 347.413 588.62H336.194C334.934 588.615 333.689 588.495 332.454 588.251C331.225 588.006 330.027 587.641 328.866 587.162C327.704 586.678 326.6 586.089 325.559 585.391C324.512 584.693 323.543 583.902 322.658 583.011C321.767 582.12 320.975 581.157 320.277 580.11C319.579 579.063 318.986 577.964 318.507 576.803C318.027 575.641 317.663 574.443 317.418 573.209C317.173 571.98 317.048 570.735 317.048 569.475C317.048 568.219 317.173 566.975 317.418 565.74C317.663 564.511 318.027 563.313 318.507 562.152C318.986 560.99 319.579 559.886 320.277 558.839C320.975 557.798 321.767 556.829 322.658 555.938C323.543 555.053 324.512 554.256 325.559 553.558C326.6 552.86 327.704 552.271 328.866 551.792C330.027 551.308 331.225 550.949 332.454 550.704C333.689 550.454 334.934 550.334 336.194 550.334H358.751V561.329H336.527C334.361 561.308 332.46 562.011 330.829 563.433C330.027 564.084 329.387 564.86 328.908 565.771C328.423 566.683 328.137 567.646 328.043 568.673C327.991 569.24 328.001 569.803 328.064 570.37C328.132 570.933 328.257 571.485 328.439 572.027C328.621 572.563 328.855 573.079 329.142 573.568C329.428 574.058 329.767 574.511 330.147 574.933C330.533 575.355 330.954 575.73 331.418 576.063C331.876 576.391 332.366 576.673 332.887 576.907C333.408 577.136 333.944 577.308 334.501 577.428C335.059 577.548 335.621 577.61 336.189 577.61H347.423C348.611 577.61 349.783 577.725 350.944 577.954C352.105 578.183 353.236 578.527 354.329 578.98C355.423 579.433 356.465 579.99 357.449 580.646C358.434 581.308 359.345 582.053 360.184 582.891C361.022 583.73 361.772 584.641 362.428 585.626C363.085 586.61 363.642 587.652 364.095 588.745C364.548 589.839 364.892 590.969 365.121 592.131C365.35 593.292 365.465 594.464 365.465 595.652C365.48 598.094 365.012 600.438 364.053 602.683H391.387C391.855 602.699 392.319 602.662 392.783 602.579C393.246 602.495 393.694 602.37 394.132 602.199C394.564 602.027 394.98 601.813 395.376 601.558C395.767 601.308 396.132 601.016 396.47 600.688C396.803 600.36 397.105 600.001 397.366 599.615C397.632 599.225 397.855 598.818 398.038 598.386C398.22 597.954 398.355 597.506 398.449 597.048C398.543 596.589 398.59 596.12 398.59 595.652C398.59 595.183 398.543 594.719 398.449 594.261C398.355 593.803 398.22 593.355 398.038 592.923C397.855 592.49 397.632 592.079 397.366 591.693C397.105 591.308 396.803 590.949 396.47 590.62C396.132 590.292 395.767 590.001 395.376 589.745C394.98 589.49 394.564 589.282 394.132 589.11C393.694 588.938 393.246 588.808 392.783 588.73C392.319 588.646 391.855 588.61 391.387 588.62H380.142C378.882 588.62 377.637 588.501 376.408 588.256C375.173 588.011 373.975 587.646 372.814 587.167C371.652 586.683 370.553 586.094 369.507 585.396C368.46 584.699 367.496 583.902 366.605 583.016C365.715 582.126 364.923 581.162 364.225 580.115C363.527 579.068 362.939 577.964 362.454 576.803C361.975 575.646 361.611 574.449 361.366 573.214C361.121 571.98 361.001 570.735 361.001 569.48C361.001 568.225 361.121 566.98 361.366 565.745C361.611 564.511 361.975 563.313 362.454 562.157C362.939 560.995 363.527 559.891 364.225 558.844C364.923 557.798 365.715 556.834 366.605 555.943C367.496 555.058 368.46 554.261 369.507 553.563C370.553 552.865 371.652 552.277 372.814 551.792C373.975 551.313 375.173 550.949 376.408 550.704C377.637 550.459 378.882 550.339 380.142 550.339H402.694V561.334H380.496C379.449 561.318 378.434 561.495 377.449 561.855C376.465 562.219 375.579 562.745 374.793 563.438C374.001 564.089 373.366 564.87 372.887 565.777C372.408 566.688 372.121 567.652 372.033 568.678C371.908 569.829 372.027 570.949 372.397 572.048C372.762 573.141 373.34 574.115 374.132 574.959C374.882 575.818 375.788 576.485 376.835 576.949C377.882 577.412 378.98 577.636 380.126 577.615L391.371 577.548Z" fill="#05152F"/>
</g>
<mask id="mask9_46_3" style="mask-type:luminance" maskUnits="userSpaceOnUse" x="414" y="549" width="51" height="65">
<path d="M414 549H464.667V613.995H414V549Z" fill="white"/>
</mask>
<g mask="url(#mask9_46_3)">
<path d="M420.671 550.209H463.885V561.271H420.671V561.225H415.229L420.671 550.209ZM431.729 569.673V602.626H463.906V613.62H420.692V569.673H431.729ZM437.171 588.563H431.729L437.171 577.563H457.911V588.563H437.171Z" fill="#05152F"/>
</g>
<mask id="mask10_46_3" style="mask-type:luminance" maskUnits="userSpaceOnUse" x="468" y="549" width="61" height="65">
<path d="M468.668 549H528.668V613.995H468.668V549Z" fill="white"/>
</mask>
<g mask="url(#mask10_46_3)">
<path d="M516.715 613.635L502.518 588.562H486.325V613.635H475.268V569.671H486.325V577.546H504.549C505.085 577.546 505.611 577.494 506.137 577.39C506.663 577.286 507.174 577.13 507.669 576.927C508.158 576.723 508.632 576.473 509.075 576.177C509.518 575.874 509.929 575.541 510.309 575.161C510.689 574.781 511.023 574.369 511.32 573.927C511.617 573.484 511.872 573.015 512.075 572.52C512.278 572.025 512.434 571.515 512.538 570.989C512.643 570.468 512.695 569.937 512.695 569.4C512.695 568.864 512.643 568.338 512.538 567.812C512.434 567.286 512.278 566.781 512.075 566.286C511.872 565.791 511.617 565.322 511.32 564.874C511.023 564.432 510.689 564.02 510.309 563.64C509.929 563.265 509.518 562.927 509.075 562.63C508.632 562.333 508.158 562.083 507.669 561.874C507.174 561.671 506.663 561.515 506.137 561.411C505.611 561.307 505.085 561.255 504.549 561.255H475.268V561.213H469.83L475.268 550.244H504.549C506.273 550.239 507.965 550.463 509.632 550.916C511.294 551.369 512.872 552.036 514.351 552.916C515.835 553.796 517.179 554.854 518.372 556.098C519.57 557.338 520.58 558.718 521.408 560.229C522.231 561.744 522.84 563.343 523.231 565.02C523.627 566.703 523.788 568.4 523.721 570.124C523.658 571.848 523.361 573.531 522.84 575.177C522.32 576.822 521.59 578.364 520.648 579.812C518.622 582.947 515.908 585.286 512.502 586.822L527.721 613.624L516.715 613.635Z" fill="#05152F"/>
</g>
<mask id="mask11_46_3" style="mask-type:luminance" maskUnits="userSpaceOnUse" x="574" y="549" width="47" height="65">
<path d="M574 549H620.667V613.995H574V549Z" fill="white"/>
</mask>
<g mask="url(#mask11_46_3)">
<path d="M601.604 587.454H590.676V602.626H604.296C604.916 602.631 605.51 602.516 606.083 602.282C606.656 602.048 607.156 601.714 607.593 601.277C608.031 600.839 608.369 600.339 608.604 599.766C608.838 599.193 608.952 598.6 608.942 597.98V587.454H619.942V595.725C619.942 596.902 619.827 598.068 619.598 599.225C619.374 600.376 619.031 601.501 618.583 602.584C618.135 603.673 617.583 604.709 616.926 605.688C616.275 606.667 615.531 607.574 614.697 608.402C613.869 609.235 612.963 609.98 611.984 610.631C611.005 611.287 609.968 611.839 608.885 612.287C607.796 612.735 606.671 613.079 605.52 613.303C604.364 613.532 603.197 613.646 602.02 613.646H579.619V569.673H590.676V576.438H603.64C604.338 576.433 605.01 576.292 605.65 576.016C606.296 575.745 606.864 575.365 607.359 574.87C607.854 574.376 608.239 573.803 608.51 573.162C608.781 572.516 608.921 571.844 608.932 571.146V561.282H579.609V561.235H574.166L579.609 550.266H608.979V550.225H619.854V550.266H619.947V569.11C619.947 570.313 619.827 571.511 619.593 572.693C619.359 573.876 619.01 575.021 618.551 576.136C618.088 577.251 617.525 578.308 616.854 579.308C616.187 580.313 615.421 581.24 614.572 582.089C613.718 582.943 612.791 583.704 611.791 584.376C610.786 585.042 609.729 585.61 608.614 586.068C607.499 586.532 606.354 586.881 605.171 587.115C603.989 587.35 602.796 587.464 601.588 587.464L601.604 587.454Z" fill="#00B6FF"/>
</g>
<mask id="mask12_46_3" style="mask-type:luminance" maskUnits="userSpaceOnUse" x="624" y="549" width="20" height="65">
<path d="M624.668 549H643.335V613.995H624.668V549Z" fill="white"/>
</mask>
<g mask="url(#mask12_46_3)">
<path d="M631.304 550.256H642.356V613.636H631.304V561.225H625.861L631.304 550.256Z" fill="#00B6FF"/>
</g>
<mask id="mask13_46_3" style="mask-type:luminance" maskUnits="userSpaceOnUse" x="647" y="549" width="45" height="65">
<path d="M647.334 549H691.334V613.995H647.334V549Z" fill="white"/>
</mask>
<g mask="url(#mask13_46_3)">
<path d="M691.115 602.624V613.619H653.74V602.624H653.787V561.223H648.303L653.74 550.229L653.787 550.27H664.782V602.64L691.115 602.624Z" fill="#00B6FF"/>
</g>
<mask id="mask14_46_3" style="mask-type:luminance" maskUnits="userSpaceOnUse" x="694" y="547" width="62" height="67">
<path d="M694 547.668H755.333V613.996H694V547.668Z" fill="white"/>
</mask>
<g mask="url(#mask14_46_3)">
<path d="M730.105 560.642L754.735 613.632H743.74L724.594 572.454L705.454 613.632H694.459L719.136 560.642L724.62 548.793L730.105 560.642Z" fill="#00B6FF"/>
</g>
<mask id="mask15_46_3" style="mask-type:luminance" maskUnits="userSpaceOnUse" x="754" y="549" width="44" height="65">
<path d="M754 549H797.583V613.995H754V549Z" fill="white"/>
</mask>
<g mask="url(#mask15_46_3)">
<path d="M797.349 602.624V613.619H759.974V602.624H760.016V561.223H754.531L759.974 550.229L760.016 550.27H771.016V602.64L797.349 602.624Z" fill="#00B6FF"/>
</g>
</svg>
